<svg xmlns="http://www.w3.org/2000/svg" viewBox="0 0 92 92" width="35" height="35" id="Cross">
    <!-- Color gradient -->
    <linearGradient id="gradient" x1="0%" y1="0%" x2="0%" y2="100%">
        <!-- Starting color -->
        <stop offset="0%" stop-color="#b621fe"/>
        <!-- End color -->
        <stop offset="100%" stop-color="#1fd1f9"/>
    </linearGradient>
    <!-- Icon path -->
    <path d="M70.7 64.3c1.8 1.8 1.8 4.6 0 6.4-.9.9-2 1.3-3.2 1.3-1.2 0-2.3-.4-3.2-1.3L46 52.4 27.7 70.7c-.9.9-2 1.3-3.2 1.3s-2.3-.4-3.2-1.3c-1.8-1.8-1.8-4.6 0-6.4L39.6 46 21.3 27.7c-1.8-1.8-1.8-4.6 0-6.4 1.8-1.8 4.6-1.8 6.4 0L46 39.6l18.3-18.3c1.8-1.8 4.6-1.8 6.4 0 1.8 1.8 1.8 4.6 0 6.4L52.4 46l18.3 18.3z" fill="url(#gradient)" class="color000000 svgShape"></path>
</svg>